<?xml version="1.0" encoding="utf-8"?>
<svg xmlns="http://www.w3.org/2000/svg"
	xmlns:xlink="http://www.w3.org/1999/xlink"
	width="20px" height="20px" viewBox="0 0 20 20">
<path fillRule="evenodd" d="M 16.87-0C 18.6-0 20 1.4 20 3.12 20 3.83 19.77 4.48 19.37 5 19.37 5 18.12 6.25 18.12 6.25 18.12 6.25 13.75 1.87 13.75 1.87 13.75 1.87 15 0.62 15 0.62 15.52 0.23 16.17-0 16.87-0ZM 1.25 14.37C 1.25 14.37-0 20-0 20-0 20 5.62 18.75 5.62 18.75 5.62 18.75 17.19 7.19 17.19 7.19 17.19 7.19 12.81 2.81 12.81 2.81 12.81 2.81 1.25 14.37 1.25 14.37ZM 13.98 7.1C 13.98 7.1 5.23 15.85 5.23 15.85 5.23 15.85 4.15 14.77 4.15 14.77 4.15 14.77 12.9 6.02 12.9 6.02 12.9 6.02 13.98 7.1 13.98 7.1Z" fill="rgb(255,255,255)"/></svg>