<?xml version="1.0" encoding="utf-8"?>
<svg xmlns="http://www.w3.org/2000/svg"
	xmlns:xlink="http://www.w3.org/1999/xlink"
	width="21px" height="16px" viewBox="0 0 21 16">
<path fillRule="evenodd" d="M 20.45 15.47C 20.08 15.82 19.64 16 19.13 16 19.13 16 1.87 16 1.87 16 1.36 16 0.92 15.82 0.55 15.47 0.18 15.11-0 14.68-0 14.18-0 14.18-0 5.16-0 5.16 0.34 5.53 0.74 5.86 1.18 6.15 4.01 8.01 5.95 9.32 7.01 10.07 7.45 10.39 7.81 10.64 8.09 10.81 8.37 10.99 8.74 11.17 9.2 11.36 9.66 11.54 10.09 11.64 10.49 11.64 10.49 11.64 10.5 11.64 10.5 11.64 10.5 11.64 10.51 11.64 10.51 11.64 10.91 11.64 11.34 11.54 11.8 11.36 12.26 11.17 12.63 10.99 12.91 10.81 13.19 10.64 13.55 10.39 13.99 10.07 15.32 9.14 17.27 7.83 19.83 6.15 20.27 5.85 20.66 5.52 21 5.16 21 5.16 21 14.18 21 14.18 21 14.68 20.82 15.11 20.45 15.47ZM 19 4.93C 16.06 6.91 14.23 8.14 13.51 8.62 13.43 8.68 13.27 8.79 13.01 8.97 12.76 9.15 12.55 9.29 12.38 9.4 12.21 9.51 12.01 9.64 11.77 9.77 11.53 9.91 11.31 10.01 11.1 10.08 10.89 10.15 10.69 10.18 10.51 10.18 10.51 10.18 10.5 10.18 10.5 10.18 10.5 10.18 10.49 10.18 10.49 10.18 10.31 10.18 10.11 10.15 9.9 10.08 9.69 10.01 9.47 9.91 9.23 9.77 8.99 9.64 8.79 9.51 8.62 9.4 8.45 9.29 8.24 9.15 7.99 8.97 7.73 8.79 7.57 8.68 7.49 8.62 6.78 8.14 5.75 7.45 4.42 6.55 3.08 5.65 2.28 5.11 2.02 4.93 1.53 4.61 1.07 4.18 0.64 3.62 0.21 3.06-0 2.54-0 2.07-0 1.48 0.16 0.98 0.49 0.59 0.81 0.2 1.27-0 1.87-0 1.87-0 19.12-0 19.12-0 19.63-0 20.07 0.18 20.44 0.53 20.81 0.89 21 1.32 21 1.82 21 2.42 20.81 2.99 20.43 3.53 20.04 4.08 19.57 4.54 19 4.93Z" fill="rgb(255,255,255)"/></svg>