<?xml version="1.0" encoding="utf-8"?>
<svg xmlns="http://www.w3.org/2000/svg"
	xmlns:xlink="http://www.w3.org/1999/xlink"
	width="22px" height="22px" viewBox="0 0 22 22">
<path fillRule="evenodd" d="M 21.8 21.43C 21.57 21.79 21.18 22 20.75 22 20.75 22 1.24 22 1.24 22 0.82 22 0.43 21.79 0.2 21.43-0.03 21.07-0.06 20.62 0.11 20.23 0.11 20.23 2.6 14.58 2.6 14.58 2.71 14.32 2.91 14.1 3.16 13.97 3.16 13.97 7.02 11.94 7.02 11.94 7.11 11.9 7.21 11.91 7.29 11.96 8.38 12.8 9.66 13.24 11 13.24 12.34 13.24 13.62 12.8 14.71 11.96 14.79 11.91 14.89 11.9 14.98 11.94 14.98 11.94 18.84 13.97 18.84 13.97 19.09 14.1 19.29 14.32 19.4 14.58 19.4 14.58 21.89 20.23 21.89 20.23 22.06 20.62 22.03 21.07 21.8 21.43ZM 11 11.66C 8.28 11.66 6.07 9.05 6.07 5.83 6.07 1.36 8.28-0 11-0 13.72-0 15.93 1.36 15.93 5.83 15.93 9.05 13.72 11.66 11 11.66Z" fill="rgb(255,255,255)"/></svg>